# xmcd
#
# Track frame offsets:
#	150
#	50301
#	77177
#	168900
#	206063
#	235713
#	263498
#	300599
#
# Disc length: 4324 seconds
#
# Revision: 0
# Processed by: cddbd v1.5.2PL0 Copyright (c) Steve Scherf et al.
# Submitted via: audiograbber 1.83.01
#
DISCID=5b10e208
DTITLE=Grateful Dead - 92-06-28 Deer Creek Music Centre, Noblesville IN
DYEAR=1900
DGENRE=
TTITLE0=Estimated Prophet
TTITLE1=Long Way To Go Home
TTITLE2=Drums
TTITLE3=Space
TTITLE4=The Last Time
TTITLE5=China Doll
TTITLE6=Around and Around
TTITLE7=Casey Jones
EXTD=
EXTT0=
EXTT1=
EXTT2=
EXTT3=
EXTT4=
EXTT5=
EXTT6=
EXTT7=
PLAYORDER=
